<svg width="400" height="400" viewBox="0 0 400 400" xmlns="http://www.w3.org/2000/svg">
  <defs>
    <radialGradient id="mainGold" cx="50%" cy="50%" r="50%">
      <stop offset="0%" stop-color="#f6d365"/>
      <stop offset="50%" stop-color="#daa520"/>
      <stop offset="100%" stop-color="#b8860b"/>
    </radialGradient>
    <radialGradient id="mainBg" cx="50%" cy="50%" r="50%">
      <stop offset="0%" stop-color="#1e1e3a"/>
      <stop offset="50%" stop-color="#141428"/>
      <stop offset="100%" stop-color="#0a0a14"/>
    </radialGradient>
    <filter id="mainGlow">
      <feGaussianBlur stdDeviation="4" result="blur"/>
      <feMerge><feMergeNode in="blur"/><feMergeNode in="SourceGraphic"/></feMerge>
    </filter>
    <filter id="outerGlow">
      <feGaussianBlur stdDeviation="8" result="blur"/>
      <feMerge><feMergeNode in="blur"/><feMergeNode in="SourceGraphic"/></feMerge>
    </filter>
  </defs>
  <!-- 外发光环 -->
  <circle cx="200" cy="200" r="190" fill="none" stroke="rgba(218,165,32,0.08)" stroke-width="20" filter="url(#outerGlow)"/>
  <!-- 外圈 -->
  <circle cx="200" cy="200" r="180" fill="none" stroke="url(#mainGold)" stroke-width="3" opacity="0.5"/>
  <circle cx="200" cy="200" r="170" fill="none" stroke="url(#mainGold)" stroke-width="1" opacity="0.3"/>
  <!-- 背景圆 -->
  <circle cx="200" cy="200" r="165" fill="url(#mainBg)"/>
  <!-- 装饰性圆环 -->
  <circle cx="200" cy="200" r="150" fill="none" stroke="rgba(218,165,32,0.08)" stroke-width="0.8" stroke-dasharray="3,6"/>
  <circle cx="200" cy="200" r="130" fill="none" stroke="rgba(218,165,32,0.06)" stroke-width="0.5"/>
  <!-- 四向小圆点 -->
  <circle cx="200" cy="55" r="2.5" fill="#daa520" opacity="0.5"/>
  <circle cx="200" cy="345" r="2.5" fill="#daa520" opacity="0.5"/>
  <circle cx="55" cy="200" r="2.5" fill="#daa520" opacity="0.5"/>
  <circle cx="345" cy="200" r="2.5" fill="#daa520" opacity="0.5"/>
  <!-- 梵文 "अ" -->
  <text x="200" y="238" text-anchor="middle" font-size="155" font-family="'Noto Sans Devanagari','Nirmala UI','Mangal',sans-serif" fill="url(#mainGold)" filter="url(#mainGlow)" font-weight="bold">अ</text>
  <!-- 下方装饰线 -->
  <line x1="140" y1="275" x2="260" y2="275" stroke="url(#mainGold)" stroke-width="1" opacity="0.3"/>
  <line x1="160" y1="282" x2="240" y2="282" stroke="url(#mainGold)" stroke-width="0.5" opacity="0.15"/>
  <!-- 底部小莲花 -->
  <g opacity="0.15" transform="translate(200,300)">
    <ellipse cx="0" cy="0" rx="6" ry="12" fill="#daa520"/>
    <ellipse cx="-10" cy="-2" rx="5" ry="10" fill="#daa520" transform="rotate(-20 -10 -2)"/>
    <ellipse cx="10" cy="-2" rx="5" ry="10" fill="#daa520" transform="rotate(20 10 -2)"/>
  </g>
</svg>
